<mxfile host="app.diagrams.net" modified="2024-01-22T08:33:55.019Z" agent="Mozilla/5.0 (Windows NT 10.0; Win64; x64) AppleWebKit/537.36 (KHTML, like Gecko) Chrome/120.0.0.0 Safari/537.36" version="22.1.21" etag="pZAEkE8DhGEjc6aTSxyT" type="github">
  <diagram name="Halaman-1" id="NgvVJ3zzYB603hmBS74F">
    <mxGraphModel>
      <root>
        <mxCell id="0" />
        <mxCell id="1" parent="0" />
      </root>
    </mxGraphModel>
  </diagram>
</mxfile>
